<?xml version="1.0" encoding="utf-8"?>
<!-- Generator: Adobe Illustrator 22.0.1, SVG Export Plug-In . SVG Version: 6.00 Build 0)  -->
<svg version="1.1" id="Layer_1" xmlns="http://www.w3.org/2000/svg" xmlns:xlink="http://www.w3.org/1999/xlink" x="0px" y="0px"
	 viewBox="0 0 256 256" style="enable-background:new 0 0 256 256;" xml:space="preserve">
<style type="text/css">
	.st0{fill:none;stroke:#000000;stroke-width:4;stroke-linecap:round;stroke-linejoin:round;stroke-miterlimit:10;}
</style>
<path class="st0" d="M23.5,121.5C21.8,182.4,70.9,232.5,128,231.9c55.8-0.6,100.5-48.5,101.6-103.5c1.2-55.7-42.7-105.6-98.6-108
	c-87.4-3.3-107.2,79.7-106.3,83.4"/>
<path class="st0" d="M147.6,63.7c-1.8-1-6,5.7-9.7,5.9c-22.9,0.3-25.3-1.5-40.6,2.2c-10.8,2.6-20.3,12.3-21.1,24.9
	c-0.9,21.4,20.5,28.2,21.1,29.4s1.1,12.2,0,13.7s-30.5,6.9-31,25.4c-0.2,14.1,21.8,24.8,39.2,24c12.7-0.6,33.6-7.9,35.6-25.2
	c1.2-20.2-25.6-27.4-25.6-32.5c0-5.1,12.9-7.3,17.5-22.8c3.2-9.5,0.4-20.4-7.2-27.8c5.8-0.9,14.8-0.6,17.5-2.7
	C145.8,76.1,149.3,64.7,147.6,63.7z"/>
<path class="st0" d="M98,77.7c-6.5,1.4-10.5,15.9-8.5,24.9c2.4,10.7,12,20.3,20.7,17.6c8.1-2.5,10.6-15,7.9-24.6
	c-2.3-7.9-12.2-17.6-16.5-16.1"/>
<path class="st0" d="M129.1,158.9c0-3.7-8.6-13.1-23.6-14.1c-10.5-0.7-24,6.3-25.6,15.6c-1.8,10.1,11,19.6,24.3,19.3
	c9.4-0.3,22.8-7.9,22.2-16.7"/>
</svg>
