<?xml version="1.0" ?><svg height="256px" id="Layer_1" style="enable-background:new 0 0 256 256;" version="1.1" viewBox="0 0 256 256" width="256px" xml:space="preserve" xmlns="http://www.w3.org/2000/svg" xmlns:xlink="http://www.w3.org/1999/xlink"><style type="text/css">
	.st0{fill:none;stroke:#000000;stroke-width:4;stroke-linecap:round;stroke-linejoin:round;stroke-miterlimit:10;}
</style><path class="st0" d="M232.487,124.71c-4.841-60.741-59.077-105.191-115.796-98.456C61.313,32.83,22.047,85.32,26.784,140.05  c4.801,55.484,53.81,100.345,109.649,96.75c87.242-6.134,97.983-90.77,96.732-94.404"/><path class="st0" d="M79.776,107.714c2.462-0.344,18.542,1.575,29.509-11.695c8.937-10.814,5.878-23.632,6.968-24.783  s19.027-1.03,20.117,0c1.091,1.03-0.545,29.57,0.606,30.782s22.178-1.212,23.389-0.485c1.212,0.727,1.454,20.723,0,22.783  c-1.454,2.06-23.389-0.97-24.48,0.485s-0.545,31.751,0.242,37.568c0.788,5.817,3.766,10.772,9.453,11.876  c7.938,1.757,11.998-2.484,13.573-1.939s5.575,15.209,5.332,16.724c-0.242,1.515-54.171,27.752-58.413-21.572  c-0.364-5.817,0.848-41.568,0-43.143c-0.848-1.575-12.981,0.208-14.3-1.135c-1.32-1.342-0.727-8.715-0.727-8.715" id="tumblr"/></svg>